<svg xmlns="http://www.w3.org/2000/svg" viewBox="0 0 45 45"><path fill="#b1e2c4" d="M41.75 8.67L38 3.11A2.5 2.5 0 0036 2H9a2.5 2.5 0 00-2 1.11L3.25 8.67A1.5 1.5 0 003 9.5v3a7.48 7.48 0 003 6v13A3.5 3.5 0 009.5 35H15v2.5a2.5 2.5 0 01-2.5 2.5H12a1.5 1.5 0 000 3h21a1.5 1.5 0 000-3h-.5a2.5 2.5 0 01-2.5-2.5V35h5.5a3.5 3.5 0 003.5-3.5v-13a7.48 7.48 0 003-6v-3a1.5 1.5 0 00-.25-.83zM9.3 5h26.4l2.66 4H6.64zm17.79 7a1.64 1.64 0 00-.09.5 4.5 4.5 0 01-9 0 1.64 1.64 0 00-.09-.5zM6 12h9.09a1.64 1.64 0 00-.09.5 4.5 4.5 0 01-9 0zm21.61 28H17.39a5.4 5.4 0 00.61-2.5V35h9v2.5a5.4 5.4 0 00.61 2.5zM36 31.5a.5.5 0 01-.5.5h-26a.5.5 0 01-.5-.5V19.85a7.41 7.41 0 001.5.15 7.49 7.49 0 006-3 7.47 7.47 0 0012 0 7.49 7.49 0 006 3 7.41 7.41 0 001.5-.15zM34.5 17a4.51 4.51 0 01-4.5-4.5 1.64 1.64 0 00-.09-.5H39v.5a4.51 4.51 0 01-4.5 4.5z"/></svg>