<svg xmlns="http://www.w3.org/2000/svg" viewBox="0 0 45 45"><path fill="#b1e2c4" d="M42.5 11.82v28a1.5 1.5 0 01-3 0v-27L23 5.46 6.5 12.8v27a1.5 1.5 0 01-3 0v-28a1.5 1.5 0 01.89-1.37l18-8a1.5 1.5 0 011.22 0l18 8a1.5 1.5 0 01.89 1.39zM32.5 28a1.5 1.5 0 00-1.5 1.5A8.48 8.48 0 0117.05 36h2.45a1.5 1.5 0 000-3h-6a1.5 1.5 0 00-1.5 1.5v6a1.5 1.5 0 003 0v-2.32a11.47 11.47 0 0019-8.68 1.5 1.5 0 00-1.5-1.5zM14 29.5A8.48 8.48 0 0127.95 23H25.5a1.5 1.5 0 000 3h6a1.5 1.5 0 001.5-1.5v-6a1.5 1.5 0 00-3 0v2.32a11.47 11.47 0 00-19 8.68 1.5 1.5 0 003 0z"/></svg>