<svg xmlns="http://www.w3.org/2000/svg" viewBox="0 0 45 45"><path fill="#b1e2c4" d="M12.5 21A6.5 6.5 0 106 14.5a6.5 6.5 0 006.5 6.5zm0-10A3.5 3.5 0 119 14.5a3.5 3.5 0 013.5-3.5zM30 21a8 8 0 10-8-8 8 8 0 008 8zm0-13a5 5 0 11-5 5 5 5 0 015-5zm13 25.5v4a1.5 1.5 0 01-3 0v-4c0-3.77-2.52-6.5-6-6.5h-7.5a6.51 6.51 0 00-6.5 6.5v4a1.5 1.5 0 01-3 0v-4a9.51 9.51 0 019.5-9.5H34c5.13 0 9 4.08 9 9.5zm-27-8a1.5 1.5 0 01-1.5 1.5h-4A5.51 5.51 0 005 32.5V36a1.5 1.5 0 01-3 0v-3.5a8.51 8.51 0 018.5-8.5h4a1.5 1.5 0 011.5 1.5z"/></svg>